# xmcd CD database file
#
# Track frame offsets:
#	150
#	14022
#	26117
#	41102
#	55980
#	66145
#	79034
#	92819
#	105705
#	118425
#	132526
#	146374
#	160100
#	171661
#	181861
#	197355
#	212659
#	227194
#	237821
#	248819
#
# Disc length: 3567 seconds
#
# Revision: 0
# Processed by: cddbd v1.5.2PL0 Copyright (c) Steve Scherf et al.
# Submitted via: CDex 1.70beta2
#
DISCID=220ded14
DTITLE=Django Reinhardt - Django Reinhardt - Quadromania III
DYEAR=2000
DGENRE=Jazz
TTITLE0=Vendredi 13
TTITLE1=Liebesfreud 
TTITLE2=Mabel
TTITLE3=Petits Mensonges
TTITLE4=Yeux Noirs 
TTITLE5=Sweet Sue 
TTITLE6=Swing De Paris 
TTITLE7=Oiseaux Des Ites
TTITLE8=All Of Me
TTITLE9=Pour Terminer
TTITLE10=Pour Commencer
TTITLE11=Yeux Noirs
TTITLE12=Begin The Beguine
TTITLE13=Swingin' The Blues 
TTITLE14=Petite Lili 
TTITLE15=Nimonche
TTITLE16=Stockholm
TTITLE17=La Cigale Et La Fourmi 
TTITLE18=Hungaria
TTITLE19=Festival Swing
EXTD=YEAR: 2000
EXTT0=
EXTT1=
EXTT2=
EXTT3=
EXTT4=
EXTT5=
EXTT6=
EXTT7=
EXTT8=
EXTT9=
EXTT10=
EXTT11=
EXTT12=
EXTT13=
EXTT14=
EXTT15=
EXTT16=
EXTT17=
EXTT18=
EXTT19=
PLAYORDER=
